<?xml version="1.0" encoding="utf-8"?>
<!-- Generator: Adobe Illustrator 26.0.3, SVG Export Plug-In . SVG Version: 6.00 Build 0)  -->
<svg version="1.1" id="el__7YtejWzz" xmlns="http://www.w3.org/2000/svg" xmlns:xlink="http://www.w3.org/1999/xlink" x="0px"
	 y="0px" viewBox="0 0 37.3 29.4" style="enable-background:new 0 0 37.3 29.4;" xml:space="preserve">
<style type="text/css">
	.st0{fill:#38AE4C;}
</style>
<g id="el_iL2rBXAvDz">
	<g id="el_jgR_nzj4MA">
		<path id="el_ZlCqhJW0g9" class="st0" d="M0.1,18C0,16.8,0,15.7,0,14.6c0-1,0-2.1,0.1-3.2c1.4,1,2.8,2.1,3.9,3.3
			C2.9,15.9,1.5,17,0.1,18z"/>
		<path id="el_Wtg_mVyE9w" class="st0" d="M37.3,14.6c0,1.6-0.1,3.3-0.2,5c-3.5-0.7-5.8-2.7-8-4.9c2.2-2.2,4.5-4.2,8-4.9
			C37.2,11.4,37.3,13,37.3,14.6z"/>
		<path id="el_XzLtQ35gVGA" class="st0" d="M16.5,12c-1.5,0-2.7,1.2-2.7,2.7c0,1.5,1.2,2.7,2.7,2.7c1.5,0,2.7-1.2,2.7-2.7
			C19.2,13.2,18,12,16.5,12z"/>
		<path id="el_U4UKDgpW9yq" class="st0" d="M16.5,9.6C11.3,9.6,8.7,12,6,14.7c2.7,2.7,5.4,5.1,10.6,5.1c5.2,0,7.8-2.4,10.6-5.1
			C24.4,12,21.7,9.6,16.5,9.6z M16.5,18.8c-2.2,0-4.1-1.8-4.1-4.1s1.8-4.1,4.1-4.1c2.2,0,4.1,1.8,4.1,4.1
			C20.6,17,18.8,18.8,16.5,18.8C16.5,18.8,16.5,18.8,16.5,18.8L16.5,18.8z"/>
		<path id="el_AKU11rPBHDP" class="st0" d="M0.2,9.9c0.2-2.3,0.5-4.6,1.1-6.8C7.9-1,29.4-1.1,36,3.1c0.4,1.8,0.7,3.6,0.9,5.4
			c-4,0.7-6.6,3-8.9,5.3c-2.7-2.7-5.8-5.5-11.5-5.5C10.8,8.3,7.7,11,5,13.8C3.6,12.3,2,11,0.2,9.9z"/>
		<path id="el_unm_cdRjt0G" class="st0" d="M36.9,20.9c-0.2,1.7-0.5,3.3-0.9,5c-7.5,4.7-27.3,4.7-34.7,0c-0.5-2.1-0.8-4.2-1-6.4
			C2,18.4,3.6,17.1,5,15.7c2.7,2.7,5.8,5.5,11.5,5.5c5.7,0,8.8-2.8,11.5-5.5C30.3,17.9,32.9,20.2,36.9,20.9z"/>
	</g>
</g>
</svg>
