<?xml version="1.0" encoding="utf-8"?>
<!-- Generator: Adobe Illustrator 26.0.3, SVG Export Plug-In . SVG Version: 6.00 Build 0)  -->
<svg version="1.1" id="Calque_1" xmlns="http://www.w3.org/2000/svg" xmlns:xlink="http://www.w3.org/1999/xlink" x="0px" y="0px"
	 viewBox="0 0 100 100" style="enable-background:new 0 0 100 100;" xml:space="preserve">
<style type="text/css">
	.st0{fill:#12191C;}
</style>
<g>
	<path class="st0" d="M-7.76,7.75L7.75-7.76c1.18-1.18,3.1-1.18,4.29,0l5.59,5.59c1.18,1.18,1.18,3.1,0,4.29L2.12,17.63
		c-1.18,1.18-3.1,1.18-4.29,0l-5.59-5.59C-8.94,10.85-8.94,8.93-7.76,7.75z"/>
	<path class="st0" d="M9.68,25.18L25.19,9.67c1.18-1.18,3.1-1.18,4.29,0l60.78,60.78c1.18,1.18,1.18,3.1,0,4.29L74.74,90.25
		c-1.18,1.18-3.1,1.18-4.29,0L9.68,29.47C8.49,28.28,8.49,26.36,9.68,25.18z"/>
	<path class="st0" d="M82.3,97.81L97.81,82.3c1.18-1.18,3.1-1.18,4.29,0l5.65,5.65c1.18,1.18,1.18,3.1,0,4.29l-15.51,15.51
		c-1.18,1.18-3.1,1.18-4.29,0l-5.65-5.65C81.12,100.92,81.12,99,82.3,97.81z"/>
	<path class="st0" d="M-7.76,87.96l28.21-28.21c1.18-1.18,3.1-1.18,4.29,0l15.51,15.51c1.18,1.18,1.18,3.1,0,4.29l-28.21,28.21
		c-1.18,1.18-3.1,1.18-4.29,0L-7.76,92.24C-8.94,91.06-8.94,89.14-7.76,87.96z"/>
	<path class="st0" d="M59.74,20.46L87.96-7.75c1.18-1.18,3.1-1.18,4.29,0l15.51,15.51c1.18,1.18,1.18,3.1,0,4.29L79.54,40.26
		c-1.18,1.18-3.1,1.18-4.29,0L59.74,24.74C58.56,23.56,58.56,21.64,59.74,20.46z"/>
</g>
</svg>
