<?xml version="1.0" encoding="utf-8"?>
<!-- Generator: Adobe Illustrator 26.0.3, SVG Export Plug-In . SVG Version: 6.00 Build 0)  -->
<svg version="1.1" id="Calque_1" xmlns="http://www.w3.org/2000/svg" xmlns:xlink="http://www.w3.org/1999/xlink" x="0px" y="0px"
	 viewBox="0 0 100 100" style="enable-background:new 0 0 100 100;" xml:space="preserve">
<style type="text/css">
	.st0{fill:#12191C;}
</style>
<path class="st0" d="M16.77,52.12l31.11,31.11c1.17,1.17,3.07,1.17,4.24,0l31.11-31.11c1.17-1.17,1.17-3.07,0-4.24L52.12,16.77
	c-1.17-1.17-3.07-1.17-4.24,0L16.77,47.88C15.59,49.05,15.59,50.95,16.77,52.12z"/>
<path class="st0" d="M-33.23,2.12l31.11,31.11c1.17,1.17,3.07,1.17,4.24,0L33.23,2.12c1.17-1.17,1.17-3.07,0-4.24L2.12-33.23
	c-1.17-1.17-3.07-1.17-4.24,0L-33.23-2.12C-34.41-0.95-34.41,0.95-33.23,2.12z"/>
<path class="st0" d="M66.77,2.12l31.11,31.11c1.17,1.17,3.07,1.17,4.24,0l31.11-31.11c1.17-1.17,1.17-3.07,0-4.24l-31.11-31.11
	c-1.17-1.17-3.07-1.17-4.24,0L66.77-2.12C65.59-0.95,65.59,0.95,66.77,2.12z"/>
<path class="st0" d="M-33.23,102.12l31.11,31.11c1.17,1.17,3.07,1.17,4.24,0l31.11-31.11c1.17-1.17,1.17-3.07,0-4.24L2.12,66.77
	c-1.17-1.17-3.07-1.17-4.24,0l-31.11,31.11C-34.41,99.05-34.41,100.95-33.23,102.12z"/>
<path class="st0" d="M66.77,102.12l31.11,31.11c1.17,1.17,3.07,1.17,4.24,0l31.11-31.11c1.17-1.17,1.17-3.07,0-4.24l-31.11-31.11
	c-1.17-1.17-3.07-1.17-4.24,0L66.77,97.88C65.59,99.05,65.59,100.95,66.77,102.12z"/>
</svg>
