<?xml version="1.0" encoding="utf-8"?>
<!-- Generator: Adobe Illustrator 26.0.3, SVG Export Plug-In . SVG Version: 6.00 Build 0)  -->
<svg version="1.1" id="Calque_1" xmlns="http://www.w3.org/2000/svg" xmlns:xlink="http://www.w3.org/1999/xlink" x="0px" y="0px"
	 viewBox="0 0 100 100" style="enable-background:new 0 0 100 100;" xml:space="preserve">
<style type="text/css">
	.st0{fill:#12191C;}
</style>
<path class="st0" d="M50,0l22.89,22.89c1.17,1.17,1.17,3.06,0,4.22L50,50L27.11,72.89c-1.17,1.17-1.17,3.06,0,4.22L50,100"/>
<path class="st0" d="M100,0l22.89,22.89c1.17,1.17,1.17,3.06,0,4.22L100,50L77.11,72.89c-1.17,1.17-1.17,3.06,0,4.22L100,100"/>
<path class="st0" d="M0,0l22.89,22.89c1.17,1.17,1.17,3.06,0,4.22L0,50l-22.89,22.89c-1.17,1.17-1.17,3.06,0,4.22L0,100"/>
</svg>
