<?xml version="1.0" encoding="utf-8"?>
<!-- Generator: Adobe Illustrator 26.0.3, SVG Export Plug-In . SVG Version: 6.00 Build 0)  -->
<svg version="1.1" id="Calque_1" xmlns="http://www.w3.org/2000/svg" xmlns:xlink="http://www.w3.org/1999/xlink" x="0px" y="0px"
	 viewBox="0 0 100 100" style="enable-background:new 0 0 100 100;" xml:space="preserve">
<style type="text/css">
	.st0{fill:#12191C;}
</style>
<path class="st0" d="M76.23,47.9L56.32,27.98c-0.56-0.56-0.87-1.32-0.87-2.1V0H44.56v25.88c0,0.79-0.31,1.55-0.87,2.1L23.77,47.9
	c-1.16,1.16-1.16,3.05,0,4.21l19.91,19.91c0.56,0.56,0.87,1.32,0.87,2.1V100h10.89V74.12c0-0.79,0.31-1.55,0.87-2.1L76.23,52.1
	C77.39,50.94,77.39,49.06,76.23,47.9z M52.1,36.94L63.06,47.9c1.16,1.16,1.16,3.05,0,4.21L52.1,63.06c-1.16,1.16-3.05,1.16-4.21,0
	L36.94,52.1c-1.16-1.16-1.16-3.05,0-4.21L47.9,36.94C49.06,35.78,50.94,35.78,52.1,36.94z"/>
<path class="st0" d="M5.44,50V24.13c0-0.8,0.32-1.56,0.88-2.12L26.21,2.12c1.17-1.17,1.17-3.07,0-4.24L6.32-22.01
	c-0.56-0.56-0.88-1.33-0.88-2.12V-50H-5.44v25.87c0,0.8-0.32,1.56-0.88,2.12L-26.21-2.12c-1.17,1.17-1.17,3.07,0,4.24l19.89,19.89
	c0.56,0.56,0.88,1.33,0.88,2.12V50v25.87c0,0.8-0.32,1.56-0.88,2.12l-19.89,19.89c-1.17,1.17-1.17,3.07,0,4.24l19.89,19.89
	c0.56,0.56,0.88,1.33,0.88,2.12V150H5.44v-25.87c0-0.8,0.32-1.56,0.88-2.12l19.89-19.89c1.17-1.17,1.17-3.07,0-4.24L6.32,77.99
	c-0.56-0.56-0.88-1.33-0.88-2.12V50z M-13.04-2.12l10.92-10.92c1.17-1.17,3.07-1.17,4.24,0L13.04-2.12c1.17,1.17,1.17,3.07,0,4.24
	L2.12,13.04c-1.17,1.17-3.07,1.17-4.24,0L-13.04,2.12C-14.22,0.95-14.22-0.95-13.04-2.12z M13.04,102.12L2.12,113.04
	c-1.17,1.17-3.07,1.17-4.24,0l-10.92-10.92c-1.17-1.17-1.17-3.07,0-4.24l10.92-10.92c1.17-1.17,3.07-1.17,4.24,0l10.92,10.92
	C14.22,99.05,14.22,100.95,13.04,102.12z"/>
<path class="st0" d="M105.44,50V24.13c0-0.8,0.32-1.56,0.88-2.12l19.89-19.89c1.17-1.17,1.17-3.07,0-4.24l-19.89-19.89
	c-0.56-0.56-0.88-1.33-0.88-2.12V-50H94.56v25.87c0,0.8-0.32,1.56-0.88,2.12L73.79-2.12c-1.17,1.17-1.17,3.07,0,4.24l19.89,19.89
	c0.56,0.56,0.88,1.33,0.88,2.12V50v25.87c0,0.8-0.32,1.56-0.88,2.12L73.79,97.88c-1.17,1.17-1.17,3.07,0,4.24l19.89,19.89
	c0.56,0.56,0.88,1.33,0.88,2.12V150h10.89v-25.87c0-0.8,0.32-1.56,0.88-2.12l19.89-19.89c1.17-1.17,1.17-3.07,0-4.24l-19.89-19.89
	c-0.56-0.56-0.88-1.33-0.88-2.12V50z M86.96-2.12l10.92-10.92c1.17-1.17,3.07-1.17,4.24,0l10.92,10.92c1.17,1.17,1.17,3.07,0,4.24
	l-10.92,10.92c-1.17,1.17-3.07,1.17-4.24,0L86.96,2.12C85.78,0.95,85.78-0.95,86.96-2.12z M113.04,102.12l-10.92,10.92
	c-1.17,1.17-3.07,1.17-4.24,0l-10.92-10.92c-1.17-1.17-1.17-3.07,0-4.24l10.92-10.92c1.17-1.17,3.07-1.17,4.24,0l10.92,10.92
	C114.22,99.05,114.22,100.95,113.04,102.12z"/>
</svg>
